<mxfile host="app.diagrams.net" modified="2022-06-25T12:08:50.225Z" agent="5.0 (Windows NT 10.0; Win64; x64) AppleWebKit/537.36 (KHTML, like Gecko) Chrome/102.0.0.0 Safari/537.36" etag="uaS7hp2ChsJWV5RqY5K0" version="18.1.2" type="github">
  <diagram id="tFo8wqjJlhvw2-l4ntId" name="Page-1">
    <mxGraphModel dx="1422" dy="794" grid="1" gridSize="10" guides="1" tooltips="1" connect="1" arrows="1" fold="1" page="1" pageScale="1" pageWidth="827" pageHeight="1169" math="0" shadow="0">
      <root>
        <mxCell id="0" />
        <mxCell id="1" parent="0" />
        <mxCell id="fzH7tVkxkb6iiytBUvc3-9" style="edgeStyle=orthogonalEdgeStyle;rounded=0;orthogonalLoop=1;jettySize=auto;html=1;entryX=0.5;entryY=0;entryDx=0;entryDy=0;" edge="1" parent="1" source="fzH7tVkxkb6iiytBUvc3-1" target="fzH7tVkxkb6iiytBUvc3-5">
          <mxGeometry relative="1" as="geometry" />
        </mxCell>
        <mxCell id="fzH7tVkxkb6iiytBUvc3-14" style="edgeStyle=orthogonalEdgeStyle;rounded=0;orthogonalLoop=1;jettySize=auto;html=1;entryX=0.5;entryY=0;entryDx=0;entryDy=0;" edge="1" parent="1" source="fzH7tVkxkb6iiytBUvc3-1" target="fzH7tVkxkb6iiytBUvc3-10">
          <mxGeometry relative="1" as="geometry" />
        </mxCell>
        <mxCell id="fzH7tVkxkb6iiytBUvc3-19" style="edgeStyle=orthogonalEdgeStyle;rounded=0;orthogonalLoop=1;jettySize=auto;html=1;entryX=0.5;entryY=0;entryDx=0;entryDy=0;" edge="1" parent="1" source="fzH7tVkxkb6iiytBUvc3-1" target="fzH7tVkxkb6iiytBUvc3-15">
          <mxGeometry relative="1" as="geometry" />
        </mxCell>
        <mxCell id="fzH7tVkxkb6iiytBUvc3-25" style="edgeStyle=orthogonalEdgeStyle;rounded=0;orthogonalLoop=1;jettySize=auto;html=1;" edge="1" parent="1" source="fzH7tVkxkb6iiytBUvc3-1" target="fzH7tVkxkb6iiytBUvc3-20">
          <mxGeometry relative="1" as="geometry">
            <Array as="points">
              <mxPoint x="190" y="40" />
            </Array>
          </mxGeometry>
        </mxCell>
        <mxCell id="fzH7tVkxkb6iiytBUvc3-30" style="edgeStyle=orthogonalEdgeStyle;rounded=0;orthogonalLoop=1;jettySize=auto;html=1;entryX=0.534;entryY=0.022;entryDx=0;entryDy=0;entryPerimeter=0;" edge="1" parent="1" source="fzH7tVkxkb6iiytBUvc3-1" target="fzH7tVkxkb6iiytBUvc3-26">
          <mxGeometry relative="1" as="geometry" />
        </mxCell>
        <mxCell id="fzH7tVkxkb6iiytBUvc3-1" value="EnemyObj" style="swimlane;fontStyle=0;childLayout=stackLayout;horizontal=1;startSize=30;horizontalStack=0;resizeParent=1;resizeParentMax=0;resizeLast=0;collapsible=1;marginBottom=0;" vertex="1" parent="1">
          <mxGeometry x="10" y="10" width="140" height="60" as="geometry" />
        </mxCell>
        <mxCell id="fzH7tVkxkb6iiytBUvc3-2" value="Collision" style="text;strokeColor=none;fillColor=none;align=left;verticalAlign=middle;spacingLeft=4;spacingRight=4;overflow=hidden;points=[[0,0.5],[1,0.5]];portConstraint=eastwest;rotatable=0;" vertex="1" parent="fzH7tVkxkb6iiytBUvc3-1">
          <mxGeometry y="30" width="140" height="30" as="geometry" />
        </mxCell>
        <mxCell id="fzH7tVkxkb6iiytBUvc3-5" value="balloObj" style="swimlane;fontStyle=0;childLayout=stackLayout;horizontal=1;startSize=30;horizontalStack=0;resizeParent=1;resizeParentMax=0;resizeLast=0;collapsible=1;marginBottom=0;" vertex="1" parent="1">
          <mxGeometry x="10" y="110" width="140" height="90" as="geometry" />
        </mxCell>
        <mxCell id="fzH7tVkxkb6iiytBUvc3-24" value="이동" style="text;html=1;strokeColor=none;fillColor=none;align=center;verticalAlign=middle;whiteSpace=wrap;rounded=0;" vertex="1" parent="fzH7tVkxkb6iiytBUvc3-5">
          <mxGeometry y="30" width="140" height="30" as="geometry" />
        </mxCell>
        <mxCell id="fzH7tVkxkb6iiytBUvc3-6" value="벽에 닿았을 때 뒤돌기" style="text;strokeColor=none;fillColor=none;align=left;verticalAlign=middle;spacingLeft=4;spacingRight=4;overflow=hidden;points=[[0,0.5],[1,0.5]];portConstraint=eastwest;rotatable=0;" vertex="1" parent="fzH7tVkxkb6iiytBUvc3-5">
          <mxGeometry y="60" width="140" height="30" as="geometry" />
        </mxCell>
        <mxCell id="fzH7tVkxkb6iiytBUvc3-10" value="diacutterObj" style="swimlane;fontStyle=0;childLayout=stackLayout;horizontal=1;startSize=30;horizontalStack=0;resizeParent=1;resizeParentMax=0;resizeLast=0;collapsible=1;marginBottom=0;" vertex="1" parent="1">
          <mxGeometry x="210" y="110" width="140" height="90" as="geometry" />
        </mxCell>
        <mxCell id="fzH7tVkxkb6iiytBUvc3-11" value="접근 시 활성화" style="text;strokeColor=none;fillColor=none;align=left;verticalAlign=middle;spacingLeft=4;spacingRight=4;overflow=hidden;points=[[0,0.5],[1,0.5]];portConstraint=eastwest;rotatable=0;" vertex="1" parent="fzH7tVkxkb6iiytBUvc3-10">
          <mxGeometry y="30" width="140" height="30" as="geometry" />
        </mxCell>
        <mxCell id="fzH7tVkxkb6iiytBUvc3-12" value="공격 (레이저 발사)" style="text;strokeColor=none;fillColor=none;align=left;verticalAlign=middle;spacingLeft=4;spacingRight=4;overflow=hidden;points=[[0,0.5],[1,0.5]];portConstraint=eastwest;rotatable=0;" vertex="1" parent="fzH7tVkxkb6iiytBUvc3-10">
          <mxGeometry y="60" width="140" height="30" as="geometry" />
        </mxCell>
        <mxCell id="fzH7tVkxkb6iiytBUvc3-15" value="octopangObj" style="swimlane;fontStyle=0;childLayout=stackLayout;horizontal=1;startSize=30;horizontalStack=0;resizeParent=1;resizeParentMax=0;resizeLast=0;collapsible=1;marginBottom=0;" vertex="1" parent="1">
          <mxGeometry x="414" y="110" width="156" height="90" as="geometry" />
        </mxCell>
        <mxCell id="fzH7tVkxkb6iiytBUvc3-16" value="오버라이드: 무적/블럭판정" style="text;strokeColor=none;fillColor=none;align=left;verticalAlign=middle;spacingLeft=4;spacingRight=4;overflow=hidden;points=[[0,0.5],[1,0.5]];portConstraint=eastwest;rotatable=0;" vertex="1" parent="fzH7tVkxkb6iiytBUvc3-15">
          <mxGeometry y="30" width="156" height="30" as="geometry" />
        </mxCell>
        <mxCell id="fzH7tVkxkb6iiytBUvc3-17" value="공격 (포탄 발사)" style="text;strokeColor=none;fillColor=none;align=left;verticalAlign=middle;spacingLeft=4;spacingRight=4;overflow=hidden;points=[[0,0.5],[1,0.5]];portConstraint=eastwest;rotatable=0;" vertex="1" parent="fzH7tVkxkb6iiytBUvc3-15">
          <mxGeometry y="60" width="156" height="30" as="geometry" />
        </mxCell>
        <mxCell id="fzH7tVkxkb6iiytBUvc3-20" value="snoodySpear" style="swimlane;fontStyle=0;childLayout=stackLayout;horizontal=1;startSize=30;horizontalStack=0;resizeParent=1;resizeParentMax=0;resizeLast=0;collapsible=1;marginBottom=0;" vertex="1" parent="1">
          <mxGeometry x="70" y="220" width="140" height="60" as="geometry" />
        </mxCell>
        <mxCell id="fzH7tVkxkb6iiytBUvc3-21" value="공격 (창 발사)" style="text;strokeColor=none;fillColor=none;align=left;verticalAlign=middle;spacingLeft=4;spacingRight=4;overflow=hidden;points=[[0,0.5],[1,0.5]];portConstraint=eastwest;rotatable=0;" vertex="1" parent="fzH7tVkxkb6iiytBUvc3-20">
          <mxGeometry y="30" width="140" height="30" as="geometry" />
        </mxCell>
        <mxCell id="fzH7tVkxkb6iiytBUvc3-26" value="snoodyBeam" style="swimlane;fontStyle=0;childLayout=stackLayout;horizontal=1;startSize=30;horizontalStack=0;resizeParent=1;resizeParentMax=0;resizeLast=0;collapsible=1;marginBottom=0;" vertex="1" parent="1">
          <mxGeometry x="274" y="220" width="206" height="90" as="geometry" />
        </mxCell>
        <mxCell id="fzH7tVkxkb6iiytBUvc3-27" value="이동 (랜덤)" style="text;strokeColor=none;fillColor=none;align=left;verticalAlign=middle;spacingLeft=4;spacingRight=4;overflow=hidden;points=[[0,0.5],[1,0.5]];portConstraint=eastwest;rotatable=0;" vertex="1" parent="fzH7tVkxkb6iiytBUvc3-26">
          <mxGeometry y="30" width="206" height="30" as="geometry" />
        </mxCell>
        <mxCell id="fzH7tVkxkb6iiytBUvc3-28" value="공격 (빔 공격, 부채꼴 모양으로 회전)" style="text;strokeColor=none;fillColor=none;align=left;verticalAlign=middle;spacingLeft=4;spacingRight=4;overflow=hidden;points=[[0,0.5],[1,0.5]];portConstraint=eastwest;rotatable=0;" vertex="1" parent="fzH7tVkxkb6iiytBUvc3-26">
          <mxGeometry y="60" width="206" height="30" as="geometry" />
        </mxCell>
      </root>
    </mxGraphModel>
  </diagram>
</mxfile>
